<svg xmlns="http://www.w3.org/2000/svg" width="115" height="61" fill="none" viewBox="0 0 115 61"><path fill="#000" d="M49.21 48.818q0 .69-.25 1.193a1.87 1.87 0 0 1-.683.776q-.434.273-.993.273t-.993-.273a1.87 1.87 0 0 1-.684-.776q-.249-.503-.249-1.193t.25-1.193q.248-.503.683-.776.434-.272.993-.272t.993.272q.435.272.684.776.25.503.25 1.193m-.511 0q0-.567-.19-.956a1.37 1.37 0 0 0-.509-.59 1.3 1.3 0 0 0-.716-.201q-.396 0-.718.2-.32.2-.51.59-.186.39-.187.957 0 .567.188.957.189.39.51.59t.717.2q.396 0 .716-.2.322-.2.51-.59.189-.39.189-.957m4.008-1.09L51.497 51h-.512l-1.21-3.273h.545l.904 2.608h.034l.903-2.608zm1.918 3.34a1.54 1.54 0 0 1-.816-.209 1.4 1.4 0 0 1-.526-.588 2 2 0 0 1-.183-.882q0-.502.183-.886.185-.386.516-.601.332-.217.775-.217.256 0 .505.085.25.085.454.277.204.19.326.503.121.314.121.771v.213h-2.522V49.1h2.011q0-.276-.11-.494a.83.83 0 0 0-.785-.469q-.3 0-.52.15a1 1 0 0 0-.334.383 1.1 1.1 0 0 0-.117.507v.29q0 .371.127.628.13.255.36.39.23.133.535.133.2 0 .358-.056a.8.8 0 0 0 .28-.17.8.8 0 0 0 .18-.286l.486.137q-.076.247-.258.434-.18.186-.447.29a1.7 1.7 0 0 1-.599.102m2.12-.068v-3.273h.486v.495h.034a.8.8 0 0 1 .324-.395.95.95 0 0 1 .529-.15 5 5 0 0 1 .264.008v.511a2 2 0 0 0-.117-.02 1 1 0 0 0-.19-.014.9.9 0 0 0-.426.1.734.734 0 0 0-.4.667V51zm2.736-4.364V51h-.503v-4.364zm1.884 4.44a1.3 1.3 0 0 1-.565-.117.97.97 0 0 1-.403-.343.97.97 0 0 1-.149-.545.84.84 0 0 1 .111-.456.8.8 0 0 1 .296-.277q.185-.1.41-.15t.453-.08q.298-.039.484-.058a.7.7 0 0 0 .273-.07q.087-.05.087-.17v-.017q0-.316-.173-.49-.17-.175-.517-.175-.36 0-.565.157a.9.9 0 0 0-.288.337l-.477-.17q.128-.3.34-.465.215-.168.47-.234.256-.068.502-.068.158 0 .363.038.206.037.398.151a.9.9 0 0 1 .322.348q.128.232.128.622V51h-.503v-.443h-.026a.9.9 0 0 1-.17.228 1 1 0 0 1-.318.207 1.2 1.2 0 0 1-.483.085m.076-.451q.3 0 .503-.117a.8.8 0 0 0 .418-.693v-.46q-.032.04-.14.07t-.248.054a11 11 0 0 1-.481.064 2 2 0 0 0-.367.083.63.63 0 0 0-.273.168.43.43 0 0 0-.102.303.45.45 0 0 0 .194.396.87.87 0 0 0 .496.132m2.341 1.602v-4.5h.486v.52h.06q.055-.086.153-.217a.9.9 0 0 1 .286-.239q.187-.106.507-.106a1.3 1.3 0 0 1 .729.206q.315.207.492.586.177.38.177.895 0 .52-.177.901a1.4 1.4 0 0 1-.49.588q-.314.207-.722.207-.316 0-.505-.104a.9.9 0 0 1-.292-.241 3 3 0 0 1-.158-.226h-.043v1.73zm.495-2.863q0 .37.108.654a1 1 0 0 0 .318.44q.21.159.511.159.315 0 .527-.167.213-.169.32-.451.108-.285.108-.635 0-.346-.107-.622a.96.96 0 0 0-.317-.442.84.84 0 0 0-.53-.164.84.84 0 0 0-.516.156.93.93 0 0 0-.316.43 1.8 1.8 0 0 0-.106.642M12.777 44v-4.364h.528v1.944h2.327v-1.944h.528V44h-.528v-1.952h-2.327V44zm5.702.068q-.443 0-.777-.21a1.43 1.43 0 0 1-.52-.591 2 2 0 0 1-.186-.886q0-.512.186-.893a1.43 1.43 0 0 1 .52-.592q.334-.211.777-.211.444 0 .776.21.334.212.52.593.187.381.187.893 0 .507-.187.886-.186.38-.52.59-.332.21-.776.211m0-.451q.338 0 .554-.173.217-.172.322-.454.105-.28.104-.61 0-.328-.104-.61a1.03 1.03 0 0 0-.322-.459.86.86 0 0 0-.554-.175.86.86 0 0 0-.554.175q-.217.176-.322.458-.104.284-.104.612t.105.61q.104.28.321.453.218.172.554.172m4.313-.955v-1.935h.503V44h-.503v-.554h-.034a1.1 1.1 0 0 1-.358.424 1.03 1.03 0 0 1-.613.173q-.307 0-.546-.135a.94.94 0 0 1-.375-.409q-.136-.275-.136-.692v-2.08h.503v2.046q0 .358.2.57a.68.68 0 0 0 .515.214.86.86 0 0 0 .382-.096.83.83 0 0 0 .328-.294q.134-.198.134-.505M24.216 44v-3.273h.486v.495h.034a.8.8 0 0 1 .324-.395.95.95 0 0 1 .528-.15 5 5 0 0 1 .264.008v.511a2 2 0 0 0-.117-.02 1 1 0 0 0-.19-.014.9.9 0 0 0-.426.1.734.734 0 0 0-.4.667V44zm2.735-4.364V44h-.503v-4.364zm1.245 5.591a1.1 1.1 0 0 1-.366-.06l.128-.443q.183.047.323.035a.4.4 0 0 0 .25-.126 1 1 0 0 0 .202-.36l.094-.256-1.21-3.29h.545l.904 2.608h.034l.903-2.608h.546l-1.39 3.75q-.094.255-.232.42a.9.9 0 0 1-.322.25 1 1 0 0 1-.409.08M8.821 51v-4.364h1.475q.513 0 .84.186.327.183.485.496.158.314.158.699t-.158.701q-.156.315-.481.503-.327.185-.836.185H9.248v-.468h1.04q.351 0 .564-.122a.73.73 0 0 0 .309-.328q.098-.21.098-.471t-.098-.469a.7.7 0 0 0-.311-.324q-.216-.12-.571-.119h-.93V51zm3.74 0v-3.273h.487v.495h.034a.8.8 0 0 1 .323-.395.95.95 0 0 1 .529-.15 5 5 0 0 1 .264.008v.511a2 2 0 0 0-.117-.02 1 1 0 0 0-.19-.014.9.9 0 0 0-.426.1.734.734 0 0 0-.4.667V51zm3.506.068a1.54 1.54 0 0 1-.816-.209 1.4 1.4 0 0 1-.527-.588 2 2 0 0 1-.183-.882q0-.502.183-.886.186-.386.516-.601.332-.217.776-.217.255 0 .505.085.249.085.453.277.205.19.326.503.122.314.122.771v.213h-2.523V49.1h2.011q0-.276-.11-.494a.83.83 0 0 0-.784-.469q-.3 0-.52.15a1 1 0 0 0-.335.383 1.1 1.1 0 0 0-.117.507v.29q0 .371.128.628.13.255.36.39.23.133.535.133.198 0 .358-.056a.8.8 0 0 0 .279-.17.8.8 0 0 0 .18-.286l.487.137q-.076.247-.258.434-.18.186-.447.29a1.7 1.7 0 0 1-.6.102m4.438-2.608-.452.128a.8.8 0 0 0-.125-.22.6.6 0 0 0-.222-.178.8.8 0 0 0-.36-.07.86.86 0 0 0-.5.138q-.2.135-.199.347 0 .188.136.296.136.11.426.181l.486.12q.44.106.654.326a.76.76 0 0 1 .216.56.83.83 0 0 1-.162.503 1.1 1.1 0 0 1-.448.35 1.6 1.6 0 0 1-.669.127q-.5 0-.829-.217a.96.96 0 0 1-.415-.635l.477-.12a.66.66 0 0 0 .258.397.87.87 0 0 0 .5.132q.352 0 .559-.15.21-.15.209-.361a.38.38 0 0 0-.12-.286.76.76 0 0 0-.366-.175l-.546-.127q-.45-.108-.66-.33a.8.8 0 0 1-.209-.565.8.8 0 0 1 .156-.49 1.06 1.06 0 0 1 .428-.335q.273-.12.618-.121.486 0 .763.213.279.213.396.562m2.189 2.608a1.54 1.54 0 0 1-.816-.209 1.4 1.4 0 0 1-.527-.588 2 2 0 0 1-.183-.882q0-.502.183-.886.186-.386.516-.601.332-.217.776-.217.255 0 .505.085.249.085.453.277.205.19.326.503.122.314.122.771v.213h-2.523V49.1h2.012q0-.276-.111-.494a.84.84 0 0 0-.784-.469q-.3 0-.52.15a1 1 0 0 0-.335.383 1.1 1.1 0 0 0-.117.507v.29q0 .371.128.628.13.255.36.39.23.133.535.133.198 0 .358-.056a.8.8 0 0 0 .279-.17.8.8 0 0 0 .18-.286l.487.137q-.076.247-.258.434-.18.186-.448.29a1.7 1.7 0 0 1-.598.102m2.623-2.037V51h-.503v-3.273h.485v.512h.043a.93.93 0 0 1 .35-.4q.233-.154.605-.154.332 0 .581.136a.92.92 0 0 1 .388.41q.14.27.139.69V51h-.503v-2.045q0-.387-.2-.601-.2-.218-.55-.218a.9.9 0 0 0-.43.105.75.75 0 0 0-.297.304 1 1 0 0 0-.108.486m4.336 2.037q-.46 0-.793-.217a1.4 1.4 0 0 1-.51-.599 2 2 0 0 1-.18-.871q0-.5.183-.88.186-.384.516-.599.332-.217.776-.217.345 0 .622.127.276.129.454.358.175.231.219.537h-.503a.78.78 0 0 0-.256-.396q-.195-.174-.528-.175a.9.9 0 0 0-.516.154 1 1 0 0 0-.343.428 1.6 1.6 0 0 0-.121.646q0 .38.12.66.12.282.34.437a.9.9 0 0 0 .52.156q.196 0 .356-.069a.74.74 0 0 0 .428-.503h.503a1.17 1.17 0 0 1-.652.889q-.272.135-.635.134m3.394 0a1.54 1.54 0 0 1-.816-.209 1.4 1.4 0 0 1-.526-.588 2 2 0 0 1-.183-.882q0-.502.183-.886.185-.386.516-.601.332-.217.775-.217.255 0 .505.085t.454.277q.204.19.326.503.12.314.121.771v.213H31.88V49.1h2.011q0-.276-.11-.494a.84.84 0 0 0-.785-.469q-.3 0-.52.15a1 1 0 0 0-.334.383 1.1 1.1 0 0 0-.117.507v.29q0 .371.127.628.13.255.36.39.23.133.535.133.199 0 .358-.056a.8.8 0 0 0 .28-.17.8.8 0 0 0 .18-.286l.486.137q-.076.247-.258.434-.18.186-.447.29a1.7 1.7 0 0 1-.599.102M85.435 44h-1.347v-4.364h1.406q.636 0 1.087.262.452.26.692.748.24.486.241 1.164 0 .681-.243 1.174a1.73 1.73 0 0 1-.707.754q-.465.262-1.13.262m-.819-.469h.784q.541 0 .897-.209.357-.209.531-.594.175-.386.175-.918 0-.53-.173-.91a1.27 1.27 0 0 0-.516-.588q-.342-.207-.854-.207h-.844zm4.68.546a1.3 1.3 0 0 1-.565-.117.97.97 0 0 1-.403-.343.97.97 0 0 1-.15-.546.84.84 0 0 1 .112-.456.8.8 0 0 1 .296-.277q.185-.1.409-.15a5 5 0 0 1 .454-.08q.298-.039.483-.058a.8.8 0 0 0 .273-.07q.088-.05.088-.17v-.017q0-.316-.173-.49-.17-.175-.518-.175-.36 0-.564.157a.9.9 0 0 0-.288.337l-.477-.17q.128-.3.34-.465.216-.168.47-.234.255-.068.502-.068.158 0 .362.038.207.037.399.151.194.115.322.348.127.232.127.622V44h-.502v-.443h-.026a.9.9 0 0 1-.17.228 1 1 0 0 1-.318.207 1.2 1.2 0 0 1-.484.085m.076-.452q.299 0 .503-.117a.8.8 0 0 0 .418-.693v-.46q-.033.04-.141.07-.106.03-.247.054a11 11 0 0 1-.482.064 2 2 0 0 0-.366.083.63.63 0 0 0-.273.168.43.43 0 0 0-.102.303q0 .261.194.396a.87.87 0 0 0 .496.132m2.341.375v-3.273h.503V44zm.256-3.818a.36.36 0 0 1-.254-.1.32.32 0 0 1-.104-.241q0-.141.104-.24a.36.36 0 0 1 .254-.101.35.35 0 0 1 .251.1.32.32 0 0 1 .107.24.32.32 0 0 1-.107.242.35.35 0 0 1-.251.1m1.67-.546V44h-.502v-4.364zm1.246 5.591a1.1 1.1 0 0 1-.367-.06l.128-.443q.183.047.324.035a.4.4 0 0 0 .25-.126q.11-.111.202-.36l.093-.256-1.21-3.29h.546l.903 2.608h.034l.904-2.608h.545l-1.39 3.75a1.4 1.4 0 0 1-.231.42.9.9 0 0 1-.322.25 1 1 0 0 1-.41.08M77.82 51v-4.364h1.475q.513 0 .84.186.327.183.485.496.158.314.158.699t-.158.701q-.156.315-.481.503-.327.185-.836.185h-1.056v-.468h1.04q.351 0 .564-.122a.73.73 0 0 0 .309-.328q.098-.21.098-.471t-.098-.469a.7.7 0 0 0-.311-.324q-.216-.12-.571-.119h-.93V51zm3.74 0v-3.273h.487v.495h.034a.8.8 0 0 1 .324-.395.95.95 0 0 1 .528-.15 5 5 0 0 1 .264.008v.511a2 2 0 0 0-.117-.02 1 1 0 0 0-.19-.014.9.9 0 0 0-.426.1.734.734 0 0 0-.4.667V51zm3.506.068a1.54 1.54 0 0 1-.816-.209 1.4 1.4 0 0 1-.527-.588 2 2 0 0 1-.183-.882q0-.502.183-.886.186-.386.516-.601.332-.217.776-.217.255 0 .505.085.249.085.453.277.205.19.326.503.122.314.122.771v.213h-2.523V49.1h2.011q0-.276-.11-.494a.83.83 0 0 0-.784-.469q-.3 0-.52.15a1 1 0 0 0-.335.383 1.1 1.1 0 0 0-.117.507v.29q0 .371.128.628.13.255.36.39.23.133.535.133.198 0 .358-.056a.8.8 0 0 0 .279-.17.8.8 0 0 0 .18-.286l.487.137q-.077.247-.258.434-.18.186-.448.29a1.7 1.7 0 0 1-.598.102m4.438-2.608-.452.128a.8.8 0 0 0-.125-.22.6.6 0 0 0-.222-.178.8.8 0 0 0-.36-.07.86.86 0 0 0-.5.138q-.2.135-.199.347 0 .188.136.296.136.11.427.181l.485.12q.44.106.654.326a.76.76 0 0 1 .216.56.83.83 0 0 1-.162.503 1.1 1.1 0 0 1-.448.35 1.6 1.6 0 0 1-.669.127q-.5 0-.829-.217a.96.96 0 0 1-.415-.635l.477-.12a.66.66 0 0 0 .258.397.87.87 0 0 0 .5.132q.352 0 .559-.15.21-.15.209-.361a.38.38 0 0 0-.12-.286.76.76 0 0 0-.366-.175l-.546-.127q-.45-.108-.66-.33a.8.8 0 0 1-.209-.565.8.8 0 0 1 .156-.49 1.06 1.06 0 0 1 .428-.335q.273-.12.618-.121.486 0 .763.213.279.213.396.562m2.189 2.608a1.54 1.54 0 0 1-.816-.209 1.4 1.4 0 0 1-.527-.588 2 2 0 0 1-.183-.882q0-.502.183-.886.186-.386.516-.601.332-.217.776-.217.255 0 .504.085.25.085.454.277.205.19.326.503.122.314.122.771v.213h-2.523V49.1h2.011q0-.276-.11-.494a.84.84 0 0 0-.784-.469q-.3 0-.52.15a1 1 0 0 0-.335.383 1.1 1.1 0 0 0-.117.507v.29q0 .371.128.628.129.255.36.39.23.133.535.133.198 0 .358-.056a.8.8 0 0 0 .279-.17.8.8 0 0 0 .18-.286l.487.137q-.076.247-.258.434-.18.186-.448.29a1.7 1.7 0 0 1-.598.102m2.623-2.037V51h-.503v-3.273h.486v.512h.042a.93.93 0 0 1 .35-.4q.234-.154.605-.154.332 0 .581.136a.92.92 0 0 1 .388.41q.14.27.139.69V51h-.503v-2.045q0-.387-.2-.601-.2-.218-.55-.218a.9.9 0 0 0-.43.105.75.75 0 0 0-.297.304 1 1 0 0 0-.108.486m4.336 2.037q-.46 0-.793-.217a1.4 1.4 0 0 1-.51-.599 2 2 0 0 1-.18-.871q0-.5.183-.88.186-.384.516-.599.333-.217.775-.217.345 0 .623.127.276.129.454.358.175.231.219.537h-.503a.78.78 0 0 0-.255-.396q-.196-.174-.529-.175a.9.9 0 0 0-.516.154 1 1 0 0 0-.343.428 1.6 1.6 0 0 0-.121.646q0 .38.12.66.12.282.34.437a.9.9 0 0 0 .52.156q.196 0 .356-.069a.74.74 0 0 0 .428-.503h.503a1.17 1.17 0 0 1-.652.889q-.273.135-.635.134m3.394 0a1.54 1.54 0 0 1-.816-.209 1.4 1.4 0 0 1-.526-.588 2 2 0 0 1-.183-.882q0-.502.183-.886.185-.386.516-.601.332-.217.775-.217.256 0 .505.085.25.085.454.277.204.19.326.503.121.314.121.771v.213h-2.522V49.1h2.011q0-.276-.111-.494a.83.83 0 0 0-.311-.343.87.87 0 0 0-.473-.126q-.3 0-.52.15a1 1 0 0 0-.334.383 1.1 1.1 0 0 0-.117.507v.29q0 .371.127.628.13.255.36.39.23.133.535.133.199 0 .358-.056a.8.8 0 0 0 .279-.17.8.8 0 0 0 .181-.286l.486.137q-.077.247-.258.434-.18.186-.447.29a1.7 1.7 0 0 1-.599.102"/><circle cx="22" cy="26" r="4.75" stroke="#000" stroke-width=".5"/><rect width="32.5" height="2.5" x="74.25" y="25.25" stroke="#000" stroke-width=".5" rx="1.25"/><mask id="a" fill="#fff"><path d="M56.121 9c2.828 0 5.12 2.178 5.121 4.866l.002.002-.002.002a4.7 4.7 0 0 1-1.114 3.028q-2.91 9.202 0 18.403a4.7 4.7 0 0 1 1.114 3.028l.002.003-.002.001c0 2.688-2.292 4.867-5.12 4.867-2.83 0-5.122-2.18-5.122-4.868 0-1.15.42-2.206 1.121-3.039q2.906-9.195-.003-18.39A4.7 4.7 0 0 1 51 13.867C51 11.18 53.292 9 56.121 9"/></mask><path fill="#000" d="M56.121 9v-.5zm5.121 4.866h-.5v.207l.147.147zm.002.002.354.354.353-.354-.353-.353zm-.002.002-.353-.353-.147.146v.207zm-1.114 3.028-.383-.32-.064.075-.03.095zm0 18.403-.477.15.03.095.064.076zm1.114 3.028h-.5v.101l.04.093zm.002.003.224.447.418-.21-.181-.43zm-.002.001-.223-.447-.277.138v.309zm-5.12 4.867v.5zM51 38.332h-.5zm1.121-3.039.383.322.064-.076.03-.095zm-.003-18.39.477-.151-.03-.095-.064-.076zM51 13.867h-.5zM56.121 9v.5c2.576 0 4.62 1.978 4.621 4.366h1c0-2.987-2.54-5.366-5.62-5.366zm5.121 4.866-.353.354.002.002.353-.354.354-.353-.002-.002zm.002.002-.353-.353-.002.002.353.353.354.354.002-.002zm-.002.002h-.5c0 1.02-.371 1.96-.997 2.707l.383.321.383.322a5.2 5.2 0 0 0 1.231-3.35zm-1.114 3.028-.477-.15c-1.971 6.232-1.971 12.471 0 18.704l.477-.151.477-.151c-1.91-6.036-1.91-12.065 0-18.1zm0 18.403-.383.321c.626.746.997 1.686.997 2.707h1c0-1.27-.463-2.434-1.231-3.35zm1.114 3.028-.46.194a.5.5 0 0 0 .067.115l.004.005v.001h.001l-.005-.006a.5.5 0 0 1-.066-.112l.461-.194.461-.194a.5.5 0 0 0-.067-.114l-.004-.006h-.001v-.001l.004.006a.4.4 0 0 1 .038.056l.028.056zm.002.003-.224-.447h-.001l.223.448.224.447h.002zm-.002.001h-.5c0 2.388-2.044 4.367-4.62 4.367v1c3.08 0 5.62-2.38 5.62-5.367zm-5.12 4.867v-.5c-2.578 0-4.622-1.98-4.622-4.368h-1c0 2.988 2.54 5.368 5.621 5.368zM51 38.332h.5a4.2 4.2 0 0 1 1.004-2.717l-.383-.322-.382-.322a5.2 5.2 0 0 0-1.239 3.361zm1.121-3.039.477.15c1.968-6.228 1.967-12.463-.003-18.691l-.477.15-.477.151c1.908 6.032 1.91 12.057.003 18.09zm-.003-18.39.383-.322c-.628-.748-1-1.69-1.001-2.713h-1c0 1.273.465 2.44 1.235 3.356zM51 13.867h.5c0-2.389 2.044-4.368 4.621-4.368v-1c-3.08 0-5.621 2.38-5.621 5.368z" mask="url(#a)"/></svg>