<svg xmlns="http://www.w3.org/2000/svg" width="121" height="61" fill="none" viewBox="0 0 121 61"><circle cx="31" cy="47" r="3.75" stroke="#000" stroke-width=".5"/><circle cx="31" cy="43" r="7.75" stroke="#000" stroke-width=".5"/><circle cx="31" cy="39" r="11.75" stroke="#000" stroke-width=".5"/><path stroke="#000" stroke-width=".5" d="M31 19.25c8.699 0 15.75 7.052 15.75 15.75S39.699 50.75 31 50.75 15.25 43.699 15.25 35 22.302 19.25 31 19.25Z"/><path stroke="#000" stroke-width=".5" d="M31 11.25c10.908 0 19.75 8.842 19.75 19.75S41.908 50.75 31 50.75 11.25 41.908 11.25 31 20.092 11.25 31 11.25Z"/><path fill="#000" d="M57.75 51a.25.25 0 1 0 .5 0h-.5m.427-40.177a.25.25 0 0 0-.354 0l-1.59 1.591a.25.25 0 0 0 .353.354L58 11.354l1.414 1.414a.25.25 0 0 0 .354-.354zM58 51h.25V11h-.5v40zM67.875 51.06a1.3 1.3 0 0 1-.82-.262q-.34-.265-.518-.765-.18-.503-.179-1.215 0-.707.179-1.208.18-.502.52-.767.34-.266.818-.266t.816.266q.34.264.52.767.18.501.181 1.208 0 .713-.179 1.215-.18.5-.518.765a1.3 1.3 0 0 1-.82.262m0-.47q.477 0 .742-.46.264-.46.264-1.312 0-.567-.122-.965-.12-.399-.345-.607a.76.76 0 0 0-.539-.21q-.473 0-.74.468-.266.464-.266 1.314 0 .567.12.963t.343.603q.225.207.543.207m5.438.41h-1.347v-4.364h1.406q.636 0 1.087.262.451.26.692.748.24.486.241 1.164 0 .681-.243 1.174a1.73 1.73 0 0 1-.707.754q-.465.262-1.13.262m-.819-.469h.784q.541 0 .897-.209.357-.209.531-.594.174-.386.175-.918 0-.53-.173-.91a1.27 1.27 0 0 0-.516-.588q-.342-.207-.854-.207h-.844zm5.088.537a1.54 1.54 0 0 1-.816-.209 1.4 1.4 0 0 1-.526-.588 2 2 0 0 1-.183-.882q0-.502.183-.886.186-.386.516-.601.332-.217.775-.217.255 0 .505.085t.454.277q.204.19.326.503.121.314.121.771v.213h-2.522V49.1h2.011q0-.276-.11-.494a.83.83 0 0 0-.785-.469q-.3 0-.52.15a1 1 0 0 0-.334.383 1.1 1.1 0 0 0-.117.507v.29q0 .371.127.628.13.255.36.39.23.133.535.133.2 0 .358-.056a.8.8 0 0 0 .28-.17.8.8 0 0 0 .18-.286l.486.137q-.076.247-.257.434-.181.186-.448.29a1.7 1.7 0 0 1-.599.102m3.544-3.34v.425H79.43v-.426zm-1.202-.785h.503v3.12q0 .213.062.32a.32.32 0 0 0 .162.14.7.7 0 0 0 .21.034 1 1 0 0 0 .222-.026l.102.452a1.051 1.051 0 0 1-.375.06q-.212 0-.417-.092a.83.83 0 0 1-.337-.28.8.8 0 0 1-.132-.472zm3.295 4.125q-.472 0-.816-.209a1.4 1.4 0 0 1-.526-.588 2 2 0 0 1-.183-.882q0-.502.183-.886.185-.386.515-.601.332-.217.776-.217.255 0 .505.085.249.085.454.277.204.19.326.503.12.314.121.771v.213h-2.522V49.1h2.01q0-.276-.11-.494a.84.84 0 0 0-.784-.469q-.3 0-.52.15a1 1 0 0 0-.334.383 1.1 1.1 0 0 0-.118.507v.29q0 .371.128.628.13.255.36.39.23.133.535.133.198 0 .358-.056a.8.8 0 0 0 .28-.17.8.8 0 0 0 .18-.286l.486.137q-.077.247-.258.434-.18.186-.447.29a1.7 1.7 0 0 1-.599.102m3.45 0q-.46 0-.793-.217a1.4 1.4 0 0 1-.511-.599 2 2 0 0 1-.18-.871q0-.5.184-.88.185-.384.516-.599.332-.217.775-.217.346 0 .622.127.277.129.454.358.177.231.22.537h-.503a.8.8 0 0 0-.256-.396q-.196-.174-.528-.175a.9.9 0 0 0-.516.154 1 1 0 0 0-.343.428 1.6 1.6 0 0 0-.121.646q0 .38.119.66.12.282.34.437a.9.9 0 0 0 .52.156q.197 0 .356-.069a.74.74 0 0 0 .429-.503h.503a1.17 1.17 0 0 1-.652.889 1.4 1.4 0 0 1-.635.134m3.445-3.34v.425h-1.696v-.426zm-1.202-.785h.503v3.12q0 .213.062.32a.32.32 0 0 0 .162.14.7.7 0 0 0 .21.034 1 1 0 0 0 .222-.026l.103.452a1.051 1.051 0 0 1-.375.06q-.213 0-.418-.092a.83.83 0 0 1-.337-.28.8.8 0 0 1-.132-.472zM90.87 51v-3.273h.503V51zm.256-3.818a.36.36 0 0 1-.254-.1.32.32 0 0 1-.104-.241q0-.141.105-.24a.36.36 0 0 1 .253-.101.35.35 0 0 1 .251.1.32.32 0 0 1 .107.24.32.32 0 0 1-.106.242.35.35 0 0 1-.252.1m2.498 3.886q-.444 0-.778-.21a1.43 1.43 0 0 1-.52-.591 2 2 0 0 1-.185-.886q0-.512.185-.893a1.43 1.43 0 0 1 .52-.592q.334-.211.778-.211.443 0 .775.21.335.212.52.593.188.381.188.893 0 .507-.188.886-.185.38-.52.59-.332.21-.775.211m0-.451a.86.86 0 0 0 .554-.173q.217-.172.322-.454.104-.28.104-.61 0-.328-.105-.61a1.03 1.03 0 0 0-.321-.459.86.86 0 0 0-.554-.175.86.86 0 0 0-.554.175 1.03 1.03 0 0 0-.322.458q-.104.284-.104.612t.104.61q.105.28.322.453.218.172.554.172m2.753-1.586V51h-.503v-3.273h.486v.512h.043a.93.93 0 0 1 .35-.4q.233-.154.604-.154.333 0 .582.136.249.135.388.41.138.27.138.69V51h-.503v-2.045q0-.387-.2-.601-.2-.218-.55-.218a.9.9 0 0 0-.43.105.75.75 0 0 0-.296.304 1 1 0 0 0-.109.486m5.325-.57-.451.127a.9.9 0 0 0-.126-.22.6.6 0 0 0-.222-.178.8.8 0 0 0-.36-.07q-.3 0-.501.138-.198.135-.198.347 0 .188.137.296.136.11.426.181l.486.12q.438.106.654.326a.76.76 0 0 1 .215.56.83.83 0 0 1-.162.503 1.1 1.1 0 0 1-.447.35 1.6 1.6 0 0 1-.67.127q-.5 0-.828-.217a.96.96 0 0 1-.416-.635l.477-.12a.66.66 0 0 0 .258.397.87.87 0 0 0 .501.132q.351 0 .558-.15.209-.15.209-.361a.38.38 0 0 0-.119-.286.77.77 0 0 0-.367-.175l-.545-.127q-.45-.108-.66-.33a.8.8 0 0 1-.21-.565.8.8 0 0 1 .156-.49 1.06 1.06 0 0 1 .428-.335q.273-.12.618-.121.486 0 .763.213.279.213.396.562M65.528 10.636h.631l1.483 3.623h.051l1.483-3.623h.63V15h-.493v-3.315h-.043L67.906 15h-.477l-1.364-3.315h-.042V15h-.495zm6.233 4.44a1.3 1.3 0 0 1-.564-.117.97.97 0 0 1-.403-.342.97.97 0 0 1-.15-.546.84.84 0 0 1 .111-.456.8.8 0 0 1 .297-.277q.185-.1.409-.15.226-.05.454-.08.298-.039.483-.058a.7.7 0 0 0 .273-.07q.087-.05.087-.17v-.017q0-.316-.172-.49-.171-.175-.518-.175-.36 0-.565.158a.9.9 0 0 0-.287.336l-.477-.17q.127-.3.34-.465.215-.168.47-.234.255-.069.502-.068.158 0 .362.038.206.036.399.151t.321.348q.129.231.128.622V15h-.503v-.443h-.025a.9.9 0 0 1-.17.228 1 1 0 0 1-.318.207 1.2 1.2 0 0 1-.484.085m.077-.451q.298 0 .503-.117a.8.8 0 0 0 .417-.693v-.46q-.032.04-.14.07-.107.03-.247.054a11 11 0 0 1-.482.064 2 2 0 0 0-.367.083.63.63 0 0 0-.272.168.43.43 0 0 0-.103.303q0 .261.194.396a.87.87 0 0 0 .497.132m2.716-2.898.784 1.338.784-1.338h.58l-1.057 1.637L76.702 15h-.58l-.784-1.27-.784 1.27h-.58l1.04-1.636-1.04-1.637zM80.522 15h-1.347v-4.364h1.406q.635 0 1.087.262.451.26.692.748.24.486.241 1.164 0 .68-.243 1.174a1.73 1.73 0 0 1-.707.754q-.465.262-1.13.262m-.819-.469h.784q.541 0 .897-.209.357-.208.531-.594t.175-.918q0-.53-.173-.91a1.27 1.27 0 0 0-.516-.588q-.342-.207-.854-.207h-.844zm5.088.537a1.54 1.54 0 0 1-.816-.209 1.4 1.4 0 0 1-.526-.588 2 2 0 0 1-.183-.882q0-.502.183-.886.186-.385.516-.601.332-.217.775-.217.255 0 .505.085t.454.277q.204.19.326.503.121.313.121.771v.213h-2.522V13.1h2.011q0-.276-.11-.494a.83.83 0 0 0-.785-.469q-.3 0-.52.15a1 1 0 0 0-.334.383 1.1 1.1 0 0 0-.117.507v.29q0 .37.127.629.13.255.36.39.23.131.535.132.2 0 .358-.056a.8.8 0 0 0 .28-.17.8.8 0 0 0 .18-.286l.486.136q-.076.247-.257.435-.181.186-.448.29a1.7 1.7 0 0 1-.599.102m3.544-3.34v.425h-1.696v-.426zm-1.202-.785h.503v3.12q0 .212.062.32a.32.32 0 0 0 .162.14.7.7 0 0 0 .21.034 1 1 0 0 0 .222-.026l.102.452a1.051 1.051 0 0 1-.375.06q-.212 0-.417-.092a.83.83 0 0 1-.337-.28.8.8 0 0 1-.132-.472zm3.295 4.125a1.54 1.54 0 0 1-.816-.209 1.4 1.4 0 0 1-.526-.588 2 2 0 0 1-.183-.882q0-.502.183-.886.185-.385.515-.601.332-.217.776-.217.255 0 .505.085.249.085.454.277.204.19.326.503.12.313.121.771v.213H89.26V13.1h2.012q0-.276-.111-.494a.83.83 0 0 0-.784-.469q-.3 0-.52.15a1 1 0 0 0-.335.383 1.1 1.1 0 0 0-.117.507v.29q0 .37.128.629.13.255.36.39.23.131.535.132.198 0 .358-.056a.8.8 0 0 0 .28-.17.8.8 0 0 0 .18-.286l.486.136q-.077.247-.258.435-.18.186-.447.29a1.7 1.7 0 0 1-.599.102m3.45 0q-.46 0-.793-.217a1.4 1.4 0 0 1-.511-.599 2 2 0 0 1-.18-.871q0-.5.184-.88.184-.383.516-.599.332-.217.775-.217.346 0 .622.127.277.129.454.359t.22.536h-.503a.8.8 0 0 0-.256-.396q-.196-.174-.528-.175a.9.9 0 0 0-.516.154 1 1 0 0 0-.343.428 1.6 1.6 0 0 0-.122.646q0 .379.12.66.121.282.34.437a.9.9 0 0 0 .52.155q.197 0 .357-.068a.74.74 0 0 0 .428-.502h.503a1.17 1.17 0 0 1-.652.888q-.273.134-.635.134m3.445-3.34v.425h-1.696v-.426zm-1.202-.785h.503v3.12q0 .212.062.32a.32.32 0 0 0 .162.14.7.7 0 0 0 .21.034q.084 0 .137-.009l.085-.017.103.452a1.052 1.052 0 0 1-.375.06q-.213 0-.418-.092a.83.83 0 0 1-.337-.28.8.8 0 0 1-.132-.472zM98.08 15v-3.273h.503V15zm.256-3.818a.36.36 0 0 1-.253-.1.32.32 0 0 1-.105-.241q0-.141.105-.24a.36.36 0 0 1 .253-.101.35.35 0 0 1 .252.1.32.32 0 0 1 .106.24.32.32 0 0 1-.106.242.35.35 0 0 1-.252.1m2.498 3.886q-.444 0-.778-.21a1.43 1.43 0 0 1-.52-.591 2 2 0 0 1-.185-.886q0-.512.185-.893a1.43 1.43 0 0 1 .52-.592q.334-.211.778-.211.443 0 .775.21.335.212.52.593.188.381.188.893 0 .507-.188.886a1.4 1.4 0 0 1-.52.59q-.332.21-.775.211m0-.451a.87.87 0 0 0 .554-.173 1 1 0 0 0 .321-.454q.105-.28.105-.61 0-.328-.105-.61a1 1 0 0 0-.321-.459.86.86 0 0 0-.554-.175.86.86 0 0 0-.554.175q-.217.176-.322.458-.105.284-.104.612 0 .328.104.61.105.28.322.453a.86.86 0 0 0 .554.172m2.753-1.586V15h-.503v-3.273h.486v.512h.043a.93.93 0 0 1 .349-.4q.234-.154.605-.154.333 0 .582.136.249.135.388.41.138.27.138.69V15h-.503v-2.046q0-.386-.2-.6-.2-.218-.55-.218a.9.9 0 0 0-.43.105.74.74 0 0 0-.296.305 1 1 0 0 0-.109.485m5.325-.57-.451.127a.9.9 0 0 0-.126-.22.6.6 0 0 0-.222-.178.8.8 0 0 0-.36-.07q-.3 0-.501.138-.198.136-.198.347 0 .188.137.296.136.11.426.181l.486.12q.438.106.654.326a.76.76 0 0 1 .215.56.83.83 0 0 1-.162.503 1.1 1.1 0 0 1-.447.35 1.6 1.6 0 0 1-.67.127q-.5 0-.828-.217a.96.96 0 0 1-.416-.635l.477-.12a.67.67 0 0 0 .258.397.87.87 0 0 0 .501.132q.351 0 .558-.15.209-.15.209-.361a.38.38 0 0 0-.119-.286.77.77 0 0 0-.367-.175l-.545-.127q-.45-.107-.661-.33a.8.8 0 0 1-.209-.565q0-.277.156-.49a1.06 1.06 0 0 1 .428-.335q.273-.12.618-.121.486 0 .763.213.279.214.396.562"/></svg>